<svg id="Laag_1" data-name="Laag 1" xmlns="http://www.w3.org/2000/svg" viewBox="0 0 728 436"><defs><style>.cls-1{fill:#fff;}</style></defs><title>TMI Basislogo wit</title><path class="cls-1" d="M206.56,217.31a22.41,22.41,0,1,0,44.82,0V152.65L206.56,203Z"/><path class="cls-1" d="M175.6,78.38a22.74,22.74,0,0,0,0,45.47h31v49.2l84.25-94.67Z"/><path class="cls-1" d="M422.22,101.06c0-.06-.12-.13-.12-.2s-.12-.39-.12-.59,0-.37,0-.55l0-.49-.06-.65c0-.12,0-.23,0-.34s-.07-.53-.11-.79l0-.16a22.46,22.46,0,0,0-1.48-5.05c-.05-.12-.1-.23-.16-.35s-.18-.42-.28-.62-.24-.49-.37-.73l-.12-.22c-.16-.31-.34-.61-.52-.9v0l-.58-.89v0c-.18-.27-.37-.53-.56-.79l-.08-.11-.52-.66-.17-.21-.46-.54c-.1-.1-.19-.21-.28-.31l-.41-.43-.39-.4-.36-.34-.48-.44-.13-.12h0L414.1,84l-.53-.45-.35-.27c-.17-.14-.35-.27-.53-.4l-.39-.27-.51-.35-.43-.27c-.16-.11-.33-.21-.5-.31l-.46-.26-.5-.27-.48-.25-.5-.23-.5-.23-.52-.21-.49-.2-.55-.19-.48-.17-.58-.17-.47-.14-.6-.14-.48-.12-.59-.11a4,4,0,0,0-.5-.09l-.57-.09-.55-.07-.53,0-.6,0-.51,0-.62,0h-1.1c-.18,0-.37,0-.55,0l-.49,0-.65.06-.34,0-.78.11-.18,0c-.31.06-.62.11-.92.18h0a23,23,0,0,0-3.1.9l-.07,0c-.31.11-.62.24-.93.37l-.43.19-.54.25-.81.41-.14.07A23,23,0,0,0,386.05,83L386,83l-.7.55-.17.14c-.2.16-.39.33-.57.5l-.29.25-.45.43-.37.36-.37.39-.41.45-.13.14-35.68,40.09L311.94,87.09c-.35-.44-.71-.86-1.09-1.26L271.52,130v87.12a22.74,22.74,0,0,0,45.47,0V160.32l12.78,14.47a22.41,22.41,0,0,0,17.13,7.68,22.16,22.16,0,0,0,14.6-5.28L422,109Z"/><path class="cls-1" d="M422.22,217.15,422,138.92,376.75,189v28.15a22.74,22.74,0,0,0,37.92,16.71l3.48-3.9A22.19,22.19,0,0,0,422.22,217.15Z"/><path class="cls-1" d="M444.63,230.17a22.76,22.76,0,0,0,41.25-13V183.82Z"/><path class="cls-1" d="M440.41,204.94l45.47-51.09V101.06a22.55,22.55,0,0,0-12.23-19.94l-33.24,37.36Z"/><path class="cls-1" d="M418.15,230l-3.48,3.9A22.64,22.64,0,0,0,418.15,230Z"/><path class="cls-1" d="M165.26,284.21l13,33.75-2.5.55-4.05-10.95H156.91l-3.85,10.65h-2.45l12.35-34Zm-1.1,3.3-6.55,18.1H171Z"/><path class="cls-1" d="M236.36,285.36l-1,1.8A23.11,23.11,0,0,0,232,286a17.41,17.41,0,0,0-3.9-.35,11.75,11.75,0,0,0-6.47,2,13,13,0,0,0-4.53,5.47,19.41,19.41,0,0,0-1.65,8.25,20.12,20.12,0,0,0,1.45,7.68,13.17,13.17,0,0,0,4.23,5.62,10.49,10.49,0,0,0,6.52,2.1,18.57,18.57,0,0,0,4.18-.4,18,18,0,0,0,3.32-1.1l1.2,1.8a15.21,15.21,0,0,1-3.87,1.3,21,21,0,0,1-4.58.55,13.85,13.85,0,0,1-13.52-8.72,22.34,22.34,0,0,1-1.68-8.78,21.75,21.75,0,0,1,1.85-9.07,15.15,15.15,0,0,1,5.38-6.45,14.48,14.48,0,0,1,8.27-2.38,23.21,23.21,0,0,1,4.38.5A10.72,10.72,0,0,1,236.36,285.36Z"/><path class="cls-1" d="M284.51,284.21,297.46,318l-2.5.55-4-10.95H276.16l-3.85,10.65h-2.45l12.35-34Zm-1.1,3.3-6.55,18.1h13.35Z"/><path class="cls-1" d="M345.51,318.21H334.46v-34h11.2q7.41,0,10.9,4.65t3.5,12.15a22.78,22.78,0,0,1-1.6,8.75,13.62,13.62,0,0,1-4.87,6.18A13.79,13.79,0,0,1,345.51,318.21Zm.55-32h-9.15v30.1h8.65a10.32,10.32,0,0,0,6.23-2,12.85,12.85,0,0,0,4.22-5.43,19.38,19.38,0,0,0,1.5-7.8,21.15,21.15,0,0,0-1.27-7.52,12,12,0,0,0-3.85-5.38A10,10,0,0,0,346.06,286.16Z"/><path class="cls-1" d="M399.06,318.21v-34h17.35l.25,2H401.51v13.65h12l.25,1.95H401.51v14.5h16l.3,1.95Z"/><path class="cls-1" d="M468,306l-10.2-15.8v28h-2.45v-34h1.1l11.95,18.1,11.75-18.1h1.35v34H479v-28.3L469,305.76Z"/><path class="cls-1" d="M529.71,318.21V304.76l-11.25-19.95,2.45-1.05,10,18.4,10.2-18H544l-11.8,20.3v13.7Z"/></svg>