<svg id="Laag_1" data-name="Laag 1" xmlns="http://www.w3.org/2000/svg" viewBox="0 0 620.26 203.25"><defs><style>.cls-1{fill:#fff;}</style></defs><title>TMI Horizontal white</title><path class="cls-1" d="M248.9,78.92l12.43,32.4-2.4.53L255,101.34H240.88l-3.7,10.22h-2.35l11.86-32.64Zm-1.06,3.17-6.29,17.37h12.82Z"/><path class="cls-1" d="M303.23,80l-1,1.73a21.25,21.25,0,0,0-3.22-1.1,16.13,16.13,0,0,0-3.74-.34,11.24,11.24,0,0,0-6.22,1.9,12.46,12.46,0,0,0-4.34,5.25,18.6,18.6,0,0,0-1.58,7.92,19.12,19.12,0,0,0,1.39,7.37,12.63,12.63,0,0,0,4.05,5.4,10.08,10.08,0,0,0,6.27,2,16.75,16.75,0,0,0,7.2-1.44l1.15,1.73a15,15,0,0,1-3.72,1.24,20.46,20.46,0,0,1-4.39.53,13.32,13.32,0,0,1-13-8.37,21.57,21.57,0,0,1-1.6-8.43,20.89,20.89,0,0,1,1.77-8.71,14.6,14.6,0,0,1,5.16-6.19,13.91,13.91,0,0,1,8-2.28,22.12,22.12,0,0,1,4.2.48A10.18,10.18,0,0,1,303.23,80Z"/><path class="cls-1" d="M335.53,78.92,348,111.32l-2.4.53-3.89-10.51H327.52l-3.7,10.22h-2.35l11.86-32.64Zm-1,3.17-6.29,17.37H341Z"/><path class="cls-1" d="M380.17,111.56h-10.6V78.92h10.75q7.1,0,10.46,4.46t3.36,11.67a22.05,22.05,0,0,1-1.53,8.4,12.62,12.62,0,0,1-12.44,8.11Zm.53-30.77h-8.78v28.9h8.3a9.91,9.91,0,0,0,6-1.9,12.32,12.32,0,0,0,4.05-5.21,18.55,18.55,0,0,0,1.44-7.48,20.24,20.24,0,0,0-1.22-7.23,11.53,11.53,0,0,0-3.7-5.16A9.58,9.58,0,0,0,380.7,80.79Z"/><path class="cls-1" d="M417.66,111.56V78.92h16.66l.24,1.87H420V93.9h11.52l.24,1.87H420v13.92h15.36l.29,1.87Z"/><path class="cls-1" d="M469.89,99.8l-9.8-15.17v26.93h-2.35V78.92h1.06L470.27,96.3l11.28-17.38h1.3v32.64h-2.36V84.39l-9.64,15.22Z"/><path class="cls-1" d="M515.24,111.56V98.65L504.44,79.5l2.36-1,9.6,17.66,9.79-17.23h2.73L517.6,98.41v13.15Z"/><path class="cls-1" d="M99.1,117.11a8.45,8.45,0,1,0,16.89,0V92.74l-16.89,19Z"/><path class="cls-1" d="M87.44,64.76a8.57,8.57,0,0,0,0,17.13H99.1v18.54l31.74-35.67Z"/><path class="cls-1" d="M180.36,73.3s0,0,0-.07a2.25,2.25,0,0,1,0-.22c0-.07,0-.14,0-.21s0-.13,0-.19l0-.24c0-.05,0-.09,0-.13s0-.2,0-.3,0,0,0-.06a8.66,8.66,0,0,0-.55-1.9l-.06-.13-.11-.24c0-.09-.09-.18-.14-.27l0-.09-.2-.34h0l-.22-.33h0l-.22-.3,0,0-.2-.25-.07-.08c0-.07-.11-.13-.17-.2l-.11-.12-.15-.16-.15-.15-.13-.13-.18-.17-.05,0h0l-.08-.07-.2-.16-.13-.11-.2-.15-.15-.1-.19-.13-.16-.1-.19-.12a1,1,0,0,1-.17-.1l-.19-.1-.18-.09-.19-.09-.19-.08-.2-.09-.18-.07-.21-.07a1.27,1.27,0,0,0-.18-.06l-.22-.07-.18,0-.22-.06-.18,0-.22,0-.19,0-.22,0-.2,0-.21,0h-1.27l-.18,0-.25,0-.13,0-.29,0h-.07L170,65h0a7.84,7.84,0,0,0-1.17.34h0l-.36.14-.16.08-.2.09-.31.16,0,0a8.26,8.26,0,0,0-1,.65l0,0-.27.2-.06.06-.22.18-.1.1a1.29,1.29,0,0,0-.17.16.93.93,0,0,0-.14.14.93.93,0,0,0-.14.14l-.16.17,0,.06L152,82.82,138.81,68c-.13-.17-.27-.32-.41-.48L123.58,84.22V117a8.57,8.57,0,0,0,17.13,0V95.63l4.82,5.45a8.61,8.61,0,0,0,11.95.91l22.8-25.7Z"/><path class="cls-1" d="M180.36,117l-.08-29.47-17.05,18.87V117a8.57,8.57,0,0,0,14.29,6.3l1.31-1.47A8.38,8.38,0,0,0,180.36,117Z"/><path class="cls-1" d="M188.8,122A8.57,8.57,0,0,0,204.34,117V104.48Z"/><path class="cls-1" d="M187.21,112.45l17.13-19.26V73.3a8.49,8.49,0,0,0-4.6-7.51L187.21,79.87Z"/></svg>